<?xml version="1.0" encoding="UTF-8" standalone="no"?>
<svg
   xmlns:dc="http://purl.org/dc/elements/1.1/"
   xmlns:cc="http://creativecommons.org/ns#"
   xmlns:rdf="http://www.w3.org/1999/02/22-rdf-syntax-ns#"
   xmlns:svg="http://www.w3.org/2000/svg"
   xmlns="http://www.w3.org/2000/svg"
   xmlns:sodipodi="http://sodipodi.sourceforge.net/DTD/sodipodi-0.dtd"
   xmlns:inkscape="http://www.inkscape.org/namespaces/inkscape"
   version="1.0"
   width="24pt"
   height="24pt"
   viewBox="0 0 24 24"
   preserveAspectRatio="xMidYMid meet"
   id="svg2"
   inkscape:version="0.91 r13725"
   sodipodi:docname="cpu_32_light.svg">
  <defs
     id="defs12">
    <filter
       inkscape:collect="always"
       style="color-interpolation-filters:sRGB"
       id="filter4249"
       x="-0.049741311"
       width="1.0994826"
       y="-0.13031414"
       height="1.2606283">
      <feGaussianBlur
         inkscape:collect="always"
         stdDeviation="0.44466984"
         id="feGaussianBlur4251" />
    </filter>
  </defs>
  <sodipodi:namedview
     pagecolor="#ffffff"
     bordercolor="#666666"
     borderopacity="1"
     objecttolerance="10"
     gridtolerance="10"
     guidetolerance="10"
     inkscape:pageopacity="0"
     inkscape:pageshadow="2"
     inkscape:window-width="1920"
     inkscape:window-height="1019"
     id="namedview10"
     showgrid="false"
     inkscape:zoom="15.733334"
     inkscape:cx="-8.604171"
     inkscape:cy="15.219585"
     inkscape:window-x="0"
     inkscape:window-y="27"
     inkscape:window-maximized="1"
     inkscape:current-layer="svg2" />
  <metadata
     id="metadata4">
Created by potrace 1.13, written by Peter Selinger 2001-2015
<rdf:RDF>
  <cc:Work
     rdf:about="">
    <dc:format>image/svg+xml</dc:format>
    <dc:type
       rdf:resource="http://purl.org/dc/dcmitype/StillImage" />
    <dc:title></dc:title>
  </cc:Work>
</rdf:RDF>
</metadata>
  <g
     style="font-style:normal;font-weight:normal;font-size:4px;line-height:125%;font-family:sans-serif;letter-spacing:0px;word-spacing:0px;fill:#000000;fill-opacity:0.10880829;stroke:none;stroke-width:1px;stroke-linecap:butt;stroke-linejoin:miter;stroke-opacity:1;filter:url(#filter4249)"
     id="text4166">
    <path
       d="m 7.1426017,13.689213 q 0.066,0 0.132,0.0275 0.066,0.022 0.1265,0.0825 l 0.737,0.7755 q -0.484,0.6325 -1.2155,0.957 -0.726,0.319 -1.7215,0.319 -0.913,0 -1.639,-0.308 -0.7205,-0.3135 -1.2265,-0.858 -0.5005,-0.55 -0.77,-1.298 -0.2695,-0.7535 -0.2695,-1.6335 0,-0.8965 0.2915,-1.6445 0.2915,-0.7534996 0.8195,-1.2979996 0.528,-0.5445 1.265,-0.847 0.737,-0.3025 1.6225,-0.3025 0.451,0 0.847,0.0825 0.4015,0.077 0.748,0.22 0.3465,0.1375 0.638,0.3355 0.2915,0.198 0.517,0.429 l -0.627,0.8415 q -0.0605,0.077 -0.143,0.143 -0.0825,0.0605 -0.231,0.0605 -0.099,0 -0.187,-0.044 -0.088,-0.044 -0.187,-0.1045 -0.099,-0.066 -0.22,-0.1375 -0.1155,-0.077 -0.2805,-0.1375 -0.1595,-0.066 -0.3795,-0.11 -0.2145,-0.044 -0.506,-0.044 -0.462,0 -0.847,0.1705 -0.3795,0.1705 -0.66,0.5005 -0.275,0.3244996 -0.429,0.8029996 -0.1485,0.473 -0.1485,1.0835 0,0.616 0.165,1.0945 0.1705,0.4785 0.4565,0.8085 0.2915,0.3245 0.6765,0.495 0.385,0.1705 0.825,0.1705 0.253,0 0.462,-0.022 0.209,-0.0275 0.3905,-0.0825 0.1815,-0.0605 0.341,-0.154 0.1595,-0.099 0.3245,-0.2475 0.066,-0.055 0.143,-0.088 0.077,-0.0385 0.1595,-0.0385 z"
       style="font-style:normal;font-variant:normal;font-weight:900;font-stretch:normal;font-size:11px;font-family:Lato;-inkscape-font-specification:'Lato Heavy';fill:#000000;fill-opacity:0.10880829"
       id="path4224" />
    <path
       d="m 10.819352,13.084213 0,2.6785 -1.8590003,0 0,-8.0134996 2.8270003,0 q 0.847,0 1.452,0.2035 0.6105,0.198 1.001,0.55 0.396,0.352 0.583,0.8305 0.187,0.4785 0.187,1.0339996 0,0.5995 -0.1925,1.1 -0.1925,0.5005 -0.5885,0.858 -0.396,0.3575 -1.0065,0.561 -0.605,0.198 -1.4355,0.198 l -0.968,0 z m 0,-1.4025 0.968,0 q 0.726,0 1.045,-0.3465 0.319,-0.3465 0.319,-0.968 0,-0.275 -0.0825,-0.5004996 -0.0825,-0.2255 -0.253,-0.385 -0.165,-0.165 -0.4235,-0.253 -0.253,-0.088 -0.605,-0.088 l -0.968,0 0,2.5409996 z"
       style="font-style:normal;font-variant:normal;font-weight:900;font-stretch:normal;font-size:11px;font-family:Lato;-inkscape-font-specification:'Lato Heavy';fill:#000000;fill-opacity:0.10880829"
       id="path4226" />
    <path
       d="m 19.308258,14.294213 q 0.374,0 0.6655,-0.121 0.297,-0.1265 0.5005,-0.3575 0.2035,-0.231 0.308,-0.561 0.11,-0.3355 0.11,-0.759 l 0,-4.7464996 1.859,0 0,4.7464996 q 0,0.737 -0.242,1.353 -0.2365,0.616 -0.682,1.0615 -0.4455,0.4455 -1.0835,0.693 -0.638,0.2475 -1.4355,0.2475 -0.803,0 -1.441,-0.2475 -0.638,-0.2475 -1.0835,-0.693 -0.4455,-0.4455 -0.682,-1.0615 -0.2365,-0.616 -0.2365,-1.353 l 0,-4.7464996 1.859,0 0,4.7409996 q 0,0.4235 0.1045,0.759 0.11,0.33 0.3135,0.5665 0.2035,0.231 0.495,0.3575 0.297,0.121 0.671,0.121 z"
       style="font-style:normal;font-variant:normal;font-weight:900;font-stretch:normal;font-size:11px;font-family:Lato;-inkscape-font-specification:'Lato Heavy';fill:#000000;fill-opacity:0.10880829"
       id="path4228" />
  </g>
  <g
     style="font-style:normal;font-weight:normal;font-size:4px;line-height:125%;font-family:sans-serif;letter-spacing:0px;word-spacing:0px;fill:#f6f6f6;fill-opacity:1;stroke:none;stroke-width:1px;stroke-linecap:butt;stroke-linejoin:miter;stroke-opacity:1"
     id="text4166-3">
    <path
       d="m 7.2206163,13.780709 q 0.066,0 0.132,0.0275 0.066,0.022 0.1265,0.0825 l 0.737,0.7755 q -0.484,0.6325 -1.2155,0.957 -0.726,0.319 -1.7215,0.319 -0.913,0 -1.639,-0.308 -0.7205,-0.3135 -1.2265,-0.858 -0.5005,-0.55 -0.77,-1.298 -0.2695,-0.7535 -0.2695,-1.6335 0,-0.8965 0.2915,-1.6445 0.2915,-0.7535001 0.8195,-1.2980001 0.528,-0.5445 1.265,-0.847 0.737,-0.3025 1.6225,-0.3025 0.451,0 0.847,0.0825 0.4015,0.077 0.748,0.22 0.3465,0.1375 0.638,0.3355 0.2915,0.198 0.517,0.429 l -0.627,0.8415 q -0.0605,0.077 -0.143,0.143 -0.0825,0.0605 -0.231,0.0605 -0.099,0 -0.187,-0.044 -0.088,-0.044 -0.187,-0.1045 -0.099,-0.066 -0.22,-0.1375 -0.1155,-0.077 -0.2805,-0.1375 -0.1595,-0.066 -0.3795,-0.11 -0.2145,-0.044 -0.506,-0.044 -0.462,0 -0.847,0.1705 -0.3795,0.1705 -0.66,0.5005 -0.275,0.3245001 -0.429,0.8030001 -0.1485,0.473 -0.1485,1.0835 0,0.616 0.165,1.0945 0.1705,0.4785 0.4565,0.8085 0.2915,0.3245 0.6765,0.495 0.385,0.1705 0.825,0.1705 0.253,0 0.462,-0.022 0.209,-0.0275 0.3905,-0.0825 0.1815,-0.0605 0.341,-0.154 0.1595,-0.099 0.3245,-0.2475 0.066,-0.055 0.143,-0.088 0.077,-0.0385 0.1595,-0.0385 z"
       style="font-style:normal;font-variant:normal;font-weight:900;font-stretch:normal;font-size:11px;font-family:Lato;-inkscape-font-specification:'Lato Heavy';fill:#f6f6f6;fill-opacity:1"
       id="path4217" />
    <path
       d="m 10.897366,13.175709 0,2.6785 -1.8589997,0 0,-8.0135001 2.8269997,0 q 0.847,0 1.452,0.2035 0.6105,0.198 1.001,0.55 0.396,0.352 0.583,0.8305 0.187,0.4785 0.187,1.0340001 0,0.5995 -0.1925,1.1 -0.1925,0.5005 -0.5885,0.858 -0.396,0.3575 -1.0065,0.561 -0.605,0.198 -1.4355,0.198 l -0.968,0 z m 0,-1.4025 0.968,0 q 0.726,0 1.045,-0.3465 0.319,-0.3465 0.319,-0.968 0,-0.275 -0.0825,-0.5005001 -0.0825,-0.2255 -0.253,-0.385 -0.165,-0.165 -0.4235,-0.253 -0.253,-0.088 -0.605,-0.088 l -0.968,0 0,2.5410001 z"
       style="font-style:normal;font-variant:normal;font-weight:900;font-stretch:normal;font-size:11px;font-family:Lato;-inkscape-font-specification:'Lato Heavy';fill:#f6f6f6;fill-opacity:1"
       id="path4219" />
    <path
       d="m 19.386273,14.385709 q 0.374,0 0.6655,-0.121 0.297,-0.1265 0.5005,-0.3575 0.2035,-0.231 0.308,-0.561 0.11,-0.3355 0.11,-0.759 l 0,-4.7465001 1.859,0 0,4.7465001 q 0,0.737 -0.242,1.353 -0.2365,0.616 -0.682,1.0615 -0.4455,0.4455 -1.0835,0.693 -0.638,0.2475 -1.4355,0.2475 -0.803,0 -1.441,-0.2475 -0.638,-0.2475 -1.0835,-0.693 -0.4455,-0.4455 -0.682,-1.0615 -0.2365,-0.616 -0.2365,-1.353 l 0,-4.7465001 1.859,0 0,4.7410001 q 0,0.4235 0.1045,0.759 0.11,0.33 0.3135,0.5665 0.2035,0.231 0.495,0.3575 0.297,0.121 0.671,0.121 z"
       style="font-style:normal;font-variant:normal;font-weight:900;font-stretch:normal;font-size:11px;font-family:Lato;-inkscape-font-specification:'Lato Heavy';fill:#f6f6f6;fill-opacity:1"
       id="path4221" />
  </g>
</svg>
