<?xml version="1.0" encoding="UTF-8" standalone="no"?>
<svg
   xmlns:dc="http://purl.org/dc/elements/1.1/"
   xmlns:cc="http://creativecommons.org/ns#"
   xmlns:rdf="http://www.w3.org/1999/02/22-rdf-syntax-ns#"
   xmlns:svg="http://www.w3.org/2000/svg"
   xmlns="http://www.w3.org/2000/svg"
   xmlns:sodipodi="http://sodipodi.sourceforge.net/DTD/sodipodi-0.dtd"
   xmlns:inkscape="http://www.inkscape.org/namespaces/inkscape"
   version="1.0"
   width="24pt"
   height="24pt"
   viewBox="0 0 24 24"
   preserveAspectRatio="xMidYMid meet"
   id="svg2"
   inkscape:version="0.91 r13725"
   sodipodi:docname="cpu_32_light.svg">
  <defs
     id="defs12">
    <filter
       inkscape:collect="always"
       style="color-interpolation-filters:sRGB"
       id="filter4186"
       x="-0.095397333"
       width="1.1907947"
       y="-0.09661033"
       height="1.1932207">
      <feGaussianBlur
         inkscape:collect="always"
         stdDeviation="0.99550782"
         id="feGaussianBlur4188" />
    </filter>
  </defs>
  <sodipodi:namedview
     pagecolor="#ffffff"
     bordercolor="#666666"
     borderopacity="1"
     objecttolerance="10"
     gridtolerance="10"
     guidetolerance="10"
     inkscape:pageopacity="0"
     inkscape:pageshadow="2"
     inkscape:window-width="1920"
     inkscape:window-height="1019"
     id="namedview10"
     showgrid="false"
     inkscape:zoom="15.733334"
     inkscape:cx="6.234994"
     inkscape:cy="22.846703"
     inkscape:window-x="0"
     inkscape:window-y="27"
     inkscape:window-maximized="1"
     inkscape:current-layer="svg2" />
  <metadata
     id="metadata4">
Created by potrace 1.13, written by Peter Selinger 2001-2015
<rdf:RDF>
  <cc:Work
     rdf:about="">
    <dc:format>image/svg+xml</dc:format>
    <dc:type
       rdf:resource="http://purl.org/dc/dcmitype/StillImage" />
    <dc:title></dc:title>
  </cc:Work>
</rdf:RDF>
</metadata>
  <path
     style="opacity:0.04;fill:#000025;fill-opacity:1;stroke:none;stroke-width:2.5;stroke-linecap:butt;stroke-linejoin:round;stroke-miterlimit:4;stroke-dasharray:none;stroke-opacity:0.46113987;filter:url(#filter4186)"
     d="m 9.4765625,2.7519531 c -3.9085169,0 -7.0546875,3.1461706 -7.0546875,7.0546875 l 0,10.6210934 c 0,3.908517 3.1461706,7.054688 7.0546875,7.054688 l 10.9355465,0 c 3.908517,0 7.054688,-3.146171 7.054688,-7.054688 l 0,-10.6210934 c 0,-3.9085169 -3.146171,-7.0546875 -7.054688,-7.0546875 l -10.9355465,0 z m 9.2539065,3.15625 1.316406,0 0,5.0722659 1.023437,0 0,0.804687 c 0,0.075 -0.02351,0.141016 -0.07227,0.197266 -0.04875,0.0525 -0.118985,0.07813 -0.208985,0.07813 l -0.742187,0 0,1.986328 -1.208984,0 0,-1.986328 -3.431641,0 c -0.09375,0 -0.176797,-0.02773 -0.248047,-0.08399 -0.07125,-0.06 -0.116016,-0.132499 -0.134765,-0.21875 l -0.146485,-0.703124 3.853516,-5.1464849 z m -6.3125,0.00391 1.238281,0 -2.414062,2.953125 c -0.0525,0.06375 -0.101641,0.1253906 -0.150391,0.1816406 -0.045,0.05625 -0.09172,0.1138281 -0.136719,0.1738281 0.1575,-0.07875 0.327813,-0.1405469 0.507813,-0.1855469 0.18375,-0.045 0.381953,-0.068359 0.595703,-0.068359 0.3075,0 0.605781,0.051094 0.894531,0.1523437 0.2925,0.10125 0.548281,0.2546875 0.769531,0.4609375 0.22125,0.2025 0.400157,0.4560159 0.535156,0.7597659 0.135,0.30375 0.203125,0.6575 0.203126,1.0625 0,0.37875 -0.07024,0.734609 -0.208985,1.068359 -0.13875,0.33 -0.332734,0.619688 -0.583984,0.867188 -0.25125,0.2475 -0.55586,0.443437 -0.91211,0.585937 -0.3525,0.1425 -0.742422,0.212891 -1.169921,0.212891 -0.435001,0 -0.824922,-0.07023 -1.169922,-0.208985 -0.345,-0.13875 -0.6390629,-0.330625 -0.8828129,-0.578125 -0.24375,-0.25125 -0.43125,-0.55164 -0.5625,-0.90039 -0.1275,-0.3525 -0.1914062,-0.742422 -0.1914062,-1.169922 0,-0.3825 0.076719,-0.774531 0.2304687,-1.175781 0.1575,-0.4050044 0.3983594,-0.82477 0.7246094,-1.25977 l 1.941406,-2.6054688 c 0.0675,-0.09 0.165469,-0.1667187 0.292969,-0.2304687 0.13125,-0.06375 0.280469,-0.095703 0.449219,-0.095703 z m 6.470703,1.5820312 -2.525391,3.4863287 2.47461,0 0,-2.6601568 c 0,-0.25125 0.01703,-0.5261719 0.05078,-0.8261719 z m -7.308594,2.5136717 c -0.22125,0 -0.421562,0.03828 -0.601562,0.113282 -0.18,0.075 -0.333438,0.179453 -0.460938,0.314453 -0.1275,0.13125 -0.227578,0.288906 -0.298828,0.472656 -0.07125,0.18 -0.107422,0.373985 -0.107422,0.583985 0,0.224999 0.02984,0.43164 0.08984,0.61914 0.06375,0.18375 0.157344,0.341406 0.277344,0.472656 0.12375,0.13125 0.275078,0.233594 0.455078,0.308594 0.18,0.07125 0.38875,0.107422 0.625,0.107422 0.22125,0 0.423672,-0.03633 0.607422,-0.111328 0.1875,-0.075 0.345312,-0.181406 0.476562,-0.316406 0.135,-0.135 0.241406,-0.292657 0.316406,-0.472657 0.075,-0.18375 0.111329,-0.381953 0.111328,-0.595703 0,-0.2325 -0.03422,-0.44125 -0.105468,-0.625 -0.07125,-0.1875 -0.173438,-0.343203 -0.304688,-0.470703 -0.13125,-0.13125 -0.288906,-0.231328 -0.472656,-0.298828 -0.18375,-0.0675 -0.386172,-0.101563 -0.607422,-0.101563 z m -0.958984,8.3125 0.677734,0 0,2.21875 c 0.141602,-0.24414 0.320313,-0.423828 0.535156,-0.541015 0.217286,-0.119629 0.475098,-0.179688 0.775391,-0.179688 0.498047,0 0.902832,0.198243 1.212891,0.59375 0.3125,0.395508 0.46875,0.914063 0.46875,1.558594 0,0.644531 -0.15625,1.165039 -0.46875,1.560547 -0.310059,0.395508 -0.714844,0.59375 -1.212891,0.59375 -0.300293,0 -0.558105,-0.05859 -0.775391,-0.175781 -0.214843,-0.119629 -0.393554,-0.302735 -0.535156,-0.546875 l 0,0.615234 -0.677734,0 0,-5.697266 z m 4.787109,0 0.673828,0 0,0.853516 -0.673828,0 0,-0.853516 z m 2.068359,0.431641 0.677735,0 0,1.164063 1.386719,0 0,0.52539 -1.386719,0 0,2.226563 c 0,0.334472 0.04443,0.549316 0.134765,0.644531 0.09277,0.09521 0.279786,0.142578 0.560547,0.142578 l 0.691407,0 0,0.5625 -0.691407,0 c -0.520019,0 -0.878418,-0.09619 -1.076171,-0.289062 -0.197754,-0.195313 -0.296876,-0.547852 -0.296876,-1.060547 l 0,-2.226563 -0.49414,0 0,-0.52539 0.49414,0 0,-1.164063 z m -2.068359,1.164063 0.673828,0 0,4.101562 -0.673828,0 0,-4.101562 z m -2.962891,0.466796 c -0.356445,0 -0.638671,0.140626 -0.84375,0.423829 -0.202636,0.280761 -0.302734,0.668457 -0.302734,1.164062 0,0.495606 0.100098,0.884766 0.302734,1.167969 0.205079,0.280762 0.487305,0.421875 0.84375,0.421875 0.356446,0 0.635254,-0.141113 0.837891,-0.421875 0.205078,-0.283203 0.308594,-0.672363 0.308594,-1.167969 0,-0.495605 -0.103516,-0.883301 -0.308594,-1.164062 -0.202637,-0.283203 -0.481445,-0.423829 -0.837891,-0.423829 z"
     transform="matrix(0.70064624,0,0,0.70674382,1.4849469,1.5210848)"
     id="rect4144"
     inkscape:connector-curvature="0" />
  <path
     style="opacity:1;fill:#fcfcfc;fill-opacity:0.76078433;stroke:none;stroke-width:2.5;stroke-linecap:butt;stroke-linejoin:round;stroke-miterlimit:4;stroke-dasharray:none;stroke-opacity:0.46113987"
     d="m 8.3953128,3.0450477 c -2.9323264,0 -5.2937503,2.361424 -5.2937503,5.2937497 l 0,6.9609376 c 0,2.932326 2.3614239,5.29375 5.2937503,5.29375 l 6.9609372,0 c 2.932326,0 5.29375,-2.361424 5.29375,-5.29375 l 0,-6.9609376 c 0,-2.9323257 -2.361424,-5.2937497 -5.29375,-5.2937497 l -6.9609372,0 z m 1.0531248,1.9484376 c 0.2760912,0 0.5244392,0.036244 0.7453124,0.1109374 0.223634,0.072118 0.414503,0.1748925 0.571875,0.30625 0.157372,0.1287819 0.276548,0.2811066 0.359375,0.45625 0.08559,0.1751434 0.129687,0.3637122 0.129687,0.5671875 0,0.1777191 -0.02301,0.3353662 -0.06719,0.4718751 -0.04141,0.1339331 -0.10311,0.2511125 -0.185938,0.3515624 -0.08007,0.1004499 -0.179718,0.1851453 -0.298437,0.2546875 -0.115959,0.069542 -0.247786,0.1270761 -0.396875,0.1734375 0.358919,0.1056012 0.626427,0.2664591 0.803125,0.4828127 0.176699,0.2163536 0.264063,0.4885184 0.264063,0.8156248 0,0.2781688 -0.05519,0.5237224 -0.165625,0.7375 -0.110437,0.2137776 -0.259134,0.3938138 -0.446875,0.5406248 -0.187743,0.144236 -0.406206,0.254994 -0.654688,0.329688 -0.2457212,0.07469 -0.5051588,0.110937 -0.78125,0.110936 -0.3009392,0 -0.5638664,-0.03248 -0.7875,-0.09687 C 8.3138664,10.541599 8.11878,10.446258 7.953125,10.320051 7.7874703,10.193841 7.6472083,10.040418 7.53125,9.8575478 7.4152917,9.6746774 7.3156398,9.462707 7.2328125,9.2231726 L 7.6843751,9.049735 C 7.8030943,9.003373 7.9134712,8.99218 8.0156248,9.015361 8.12054,9.035966 8.1968144,9.087627 8.2437504,9.1700482 c 0.049696,0.090147 0.1029576,0.1780536 0.1609368,0.2656248 0.06074,0.087572 0.1327976,0.1663952 0.2156256,0.2359376 0.082827,0.066966 0.1786256,0.1218392 0.2890624,0.1656248 0.1131976,0.04121 0.2485136,0.0625 0.4031248,0.0625 0.1739376,0 0.3249248,-0.02505 0.4546872,-0.076562 0.1297632,-0.054089 0.2378498,-0.12438 0.3234378,-0.209376 0.08835,-0.084996 0.152337,-0.1797864 0.19375,-0.282812 0.04417,-0.1056016 0.06719,-0.210024 0.06719,-0.3156248 0,-0.1339336 -0.01494,-0.2558864 -0.04531,-0.3640632 -0.03037,-0.110752 -0.09399,-0.2039808 -0.190625,-0.2812496 -0.09663,-0.07727 -0.2365298,-0.137464 -0.4187498,-0.1812504 -0.1794592,-0.043786 -0.4213,-0.065625 -0.725,-0.065625 l 0,-0.6812499 c 0.2512432,-0.00258 0.4593448,-0.024415 0.625,-0.065625 0.1656544,-0.04121 0.2971176,-0.096632 0.3937496,-0.16875 0.099393,-0.074694 0.1691602,-0.164162 0.2078132,-0.2671875 0.03865,-0.1030255 0.05781,-0.2169944 0.05781,-0.340625 0,-0.2627151 -0.07856,-0.4619287 -0.235937,-0.5984375 C 9.8629408,5.8647887 9.652912,5.79661 9.3906248,5.79661 c -0.12148,0 -0.2337832,0.016517 -0.3359376,0.05 C 8.9525336,5.877518 8.860952,5.923308 8.7781248,5.9825475 8.6980588,6.0392115 8.6302184,6.1052784 8.575,6.1825475 8.519782,6.2598165 8.477609,6.3460746 8.45,6.4387975 8.403065,6.5572769 8.341368,6.6345379 8.2640624,6.6731725 c -0.074545,0.038635 -0.180704,0.04873 -0.3187499,0.028125 L 7.40625,6.6122352 C 7.4476637,6.3443689 7.5281558,6.11001 7.646875,5.9091102 7.7655943,5.7056349 7.9139266,5.5367934 8.0906248,5.4028602 8.270084,5.2663514 8.4739696,5.1651393 8.7031248,5.0981727 8.9350416,5.0286305 9.1833896,4.9934853 9.4484376,4.9934853 Z m 4.7750004,0 c 0.276091,0 0.528656,0.038356 0.757812,0.1156249 0.229156,0.074693 0.426168,0.1812281 0.589063,0.3203125 0.162893,0.1390845 0.290139,0.3073766 0.381249,0.503125 0.09111,0.1957485 0.135938,0.4120282 0.135938,0.6515625 0,0.2060511 -0.03217,0.3967316 -0.09844,0.5718751 -0.0635,0.1751433 -0.1505,0.3434354 -0.260937,0.5031249 -0.107675,0.1596896 -0.234922,0.3146752 -0.38125,0.4640624 -0.146329,0.1493872 -0.299242,0.3001496 -0.459375,0.4546872 l -1.354687,1.2875008 c 0.132523,-0.036059 0.26206,-0.063221 0.389062,-0.08125 0.129763,-0.020605 0.252791,-0.03125 0.36875,-0.03125 l 1.535937,0 c 0.110437,0 0.197437,0.029823 0.260938,0.089063 0.06626,0.056664 0.1,0.1328264 0.1,0.2281244 l 0,0.571876 -4.109375,0 0,-0.317188 c 0,-0.06439 0.01458,-0.13202 0.04219,-0.201563 0.03037,-0.07212 0.07712,-0.135523 0.140625,-0.192187 l 1.818749,-1.7 c 0.151851,-0.1442366 0.285969,-0.2827054 0.404688,-0.414063 0.12148,-0.1313578 0.223059,-0.2618434 0.303125,-0.3906253 0.08007,-0.1287819 0.141399,-0.2577049 0.182813,-0.3890625 0.04417,-0.1339331 0.06562,-0.2750636 0.06562,-0.421875 0,-0.1339332 -0.02109,-0.2511126 -0.0625,-0.3515625 C 14.932024,6.1607722 14.872618,6.0755274 14.795313,6.0059853 14.720768,5.936443 14.62955,5.884781 14.521875,5.8512977 c -0.104915,-0.036059 -0.223726,-0.054687 -0.35625,-0.054687 -0.12148,0 -0.234148,0.016517 -0.339063,0.05 -0.102153,0.030908 -0.193371,0.076698 -0.273437,0.1359375 -0.08007,0.056664 -0.147907,0.1227309 -0.203125,0.2 -0.05522,0.077269 -0.09583,0.1635271 -0.123438,0.25625 -0.04693,0.1184794 -0.108268,0.1957404 -0.182812,0.234375 -0.07454,0.038635 -0.182631,0.04873 -0.323437,0.028125 l -0.5375,-0.089062 c 0.04141,-0.2678668 0.120343,-0.5022257 0.239062,-0.7031255 0.118719,-0.2034753 0.267051,-0.3723168 0.44375,-0.50625 0.179459,-0.1365088 0.383345,-0.2377209 0.6125,-0.3046875 0.231917,-0.069542 0.480265,-0.1046874 0.745313,-0.1046874 z m -5.6250004,9.0531247 0.5562496,0 0,1.757813 c 0.1304536,-0.14488 0.2791496,-0.258755 0.4468752,-0.343751 0.1677256,-0.085 0.3607032,-0.128125 0.5781246,-0.128125 0.184291,0 0.349857,0.03276 0.496875,0.09844 0.14909,0.06568 0.276154,0.161938 0.379688,0.2875 0.103534,0.12363 0.1821,0.273843 0.235937,0.451562 0.05591,0.17772 0.08281,0.377852 0.08281,0.6 0,0.237603 -0.03007,0.453333 -0.09219,0.648438 -0.06212,0.195104 -0.152284,0.362478 -0.270313,0.501562 -0.115958,0.137153 -0.258836,0.244606 -0.426562,0.321876 -0.167726,0.07534 -0.354923,0.1125 -0.564062,0.1125 -0.2070692,0 -0.3821236,-0.03478 -0.5250004,-0.106251 -0.1408064,-0.07341 -0.264708,-0.177648 -0.3703128,-0.310937 l -0.028125,0.267188 c -0.016566,0.0734 -0.063502,0.109374 -0.142188,0.109374 l -0.357812,0 0,-4.267187 z m 3.7843754,0.04062 c 0.05384,0 0.103937,0.0088 0.151562,0.02813 0.0497,0.01932 0.09136,0.04648 0.126563,0.08125 0.03727,0.03284 0.06679,0.07239 0.0875,0.11875 0.02278,0.04443 0.03438,0.09196 0.03438,0.142187 0,0.05023 -0.0116,0.09776 -0.03438,0.142188 -0.02071,0.0425 -0.05023,0.08085 -0.0875,0.115625 -0.0352,0.03284 -0.07687,0.05881 -0.126563,0.07813 -0.04763,0.01932 -0.09773,0.02969 -0.151562,0.02969 -0.05384,0 -0.105499,-0.01037 -0.153126,-0.02969 -0.04555,-0.01932 -0.08511,-0.04529 -0.120312,-0.07813 -0.0352,-0.03477 -0.06367,-0.07313 -0.08437,-0.115625 -0.02071,-0.04443 -0.03125,-0.09196 -0.03125,-0.142188 0,-0.05022 0.01054,-0.09776 0.03125,-0.142187 0.02071,-0.04636 0.04917,-0.08591 0.08437,-0.11875 0.0352,-0.03477 0.07476,-0.06193 0.120312,-0.08125 0.04763,-0.01932 0.09929,-0.02813 0.153126,-0.02813 z m 1.656249,0.3375 0.279688,0 0,1.0125 0.909375,0 0,0.373437 -0.909375,0 0,1.760938 c 0,0.12363 0.03112,0.216679 0.09531,0.276562 0.06419,0.05988 0.148537,0.08906 0.25,0.08906 0.05798,0 0.107024,-0.0068 0.148438,-0.02031 0.04348,-0.01545 0.08144,-0.03105 0.1125,-0.04844 0.03106,-0.01739 0.05586,-0.03335 0.07656,-0.04687 0.02278,-0.01545 0.04281,-0.02344 0.05937,-0.02344 0.02899,0 0.05535,0.01716 0.07813,0.05 L 15.3,18.09348 c -0.09525,0.08306 -0.210719,0.148582 -0.345313,0.196875 -0.134595,0.04636 -0.272747,0.07031 -0.415625,0.07031 -0.248482,0 -0.440406,-0.06432 -0.575,-0.193749 -0.132524,-0.129427 -0.198438,-0.315978 -0.198438,-0.559376 l 0,-1.796875 -0.378124,0 c -0.03313,0 -0.0616,-0.0092 -0.08437,-0.02656 -0.02278,-0.01932 -0.03437,-0.0473 -0.03437,-0.08594 l 0,-0.206249 0.515624,-0.06094 0.126563,-0.90625 c 0.0062,-0.02898 0.01992,-0.05293 0.04063,-0.07031 0.02278,-0.01932 0.0523,-0.02969 0.0875,-0.02969 z m -1.926562,0.954688 0.551562,0 0,2.934374 -0.551562,0 0,-2.934374 z M 9.9968752,15.74348 c -0.1801496,0 -0.3388432,0.03836 -0.4734376,0.115625 -0.1345944,0.07727 -0.2569328,0.187109 -0.3687504,0.328125 l 0,1.420312 c 0.101464,0.127494 0.2127128,0.216594 0.3328128,0.26875 0.1221704,0.05216 0.255052,0.07813 0.4,0.07813 0.296108,0 0.522315,-0.09708 0.679687,-0.292188 0.157372,-0.195104 0.235938,-0.485529 0.235938,-0.871875 0,-0.359301 -0.07013,-0.624127 -0.210938,-0.792188 -0.138735,-0.169992 -0.336477,-0.254687 -0.5953118,-0.254687 z"
     id="rect4136"
     inkscape:connector-curvature="0" />
</svg>
