<?xml version="1.0" encoding="UTF-8" standalone="no"?>
<svg
   xmlns:dc="http://purl.org/dc/elements/1.1/"
   xmlns:cc="http://creativecommons.org/ns#"
   xmlns:rdf="http://www.w3.org/1999/02/22-rdf-syntax-ns#"
   xmlns:svg="http://www.w3.org/2000/svg"
   xmlns="http://www.w3.org/2000/svg"
   xmlns:sodipodi="http://sodipodi.sourceforge.net/DTD/sodipodi-0.dtd"
   xmlns:inkscape="http://www.inkscape.org/namespaces/inkscape"
   version="1.0"
   width="24pt"
   height="24pt"
   viewBox="0 0 24 24"
   preserveAspectRatio="xMidYMid meet"
   id="svg2"
   inkscape:version="0.91 r13725"
   sodipodi:docname="cpu_64_dark.svg">
  <defs
     id="defs12">
    <filter
       inkscape:collect="always"
       style="color-interpolation-filters:sRGB"
       id="filter4186"
       x="-0.095397333"
       width="1.1907947"
       y="-0.09661033"
       height="1.1932207">
      <feGaussianBlur
         inkscape:collect="always"
         stdDeviation="0.99550782"
         id="feGaussianBlur4188" />
    </filter>
  </defs>
  <sodipodi:namedview
     pagecolor="#ffffff"
     bordercolor="#666666"
     borderopacity="1"
     objecttolerance="10"
     gridtolerance="10"
     guidetolerance="10"
     inkscape:pageopacity="0"
     inkscape:pageshadow="2"
     inkscape:window-width="1920"
     inkscape:window-height="1019"
     id="namedview10"
     showgrid="false"
     inkscape:zoom="15.733334"
     inkscape:cx="16.88118"
     inkscape:cy="11.456541"
     inkscape:window-x="0"
     inkscape:window-y="27"
     inkscape:window-maximized="1"
     inkscape:current-layer="svg2" />
  <metadata
     id="metadata4">
Created by potrace 1.13, written by Peter Selinger 2001-2015
<rdf:RDF>
  <cc:Work
     rdf:about="">
    <dc:format>image/svg+xml</dc:format>
    <dc:type
       rdf:resource="http://purl.org/dc/dcmitype/StillImage" />
    <dc:title></dc:title>
  </cc:Work>
</rdf:RDF>
</metadata>
  <path
     style="opacity:0.04;fill:#000025;fill-opacity:1;stroke:none;stroke-width:2.5;stroke-linecap:butt;stroke-linejoin:round;stroke-miterlimit:4;stroke-dasharray:none;stroke-opacity:0.46113987;filter:url(#filter4186)"
     d="m 9.4765625,2.7519531 c -3.9085169,0 -7.0546875,3.1461706 -7.0546875,7.0546875 l 0,10.6210934 c 0,3.908517 3.1461706,7.054688 7.0546875,7.054688 l 10.9355465,0 c 3.908517,0 7.054688,-3.146171 7.054688,-7.054688 l 0,-10.6210934 c 0,-3.9085169 -3.146171,-7.0546875 -7.054688,-7.0546875 l -10.9355465,0 z m 9.2539065,3.15625 1.316406,0 0,5.0722659 1.023437,0 0,0.804687 c 0,0.075 -0.02351,0.141016 -0.07227,0.197266 -0.04875,0.0525 -0.118985,0.07813 -0.208985,0.07813 l -0.742187,0 0,1.986328 -1.208984,0 0,-1.986328 -3.431641,0 c -0.09375,0 -0.176797,-0.02773 -0.248047,-0.08399 -0.07125,-0.06 -0.116016,-0.132499 -0.134765,-0.21875 l -0.146485,-0.703124 3.853516,-5.1464849 z m -6.3125,0.00391 1.238281,0 -2.414062,2.953125 c -0.0525,0.06375 -0.101641,0.1253906 -0.150391,0.1816406 -0.045,0.05625 -0.09172,0.1138281 -0.136719,0.1738281 0.1575,-0.07875 0.327813,-0.1405469 0.507813,-0.1855469 0.18375,-0.045 0.381953,-0.068359 0.595703,-0.068359 0.3075,0 0.605781,0.051094 0.894531,0.1523437 0.2925,0.10125 0.548281,0.2546875 0.769531,0.4609375 0.22125,0.2025 0.400157,0.4560159 0.535156,0.7597659 0.135,0.30375 0.203125,0.6575 0.203126,1.0625 0,0.37875 -0.07024,0.734609 -0.208985,1.068359 -0.13875,0.33 -0.332734,0.619688 -0.583984,0.867188 -0.25125,0.2475 -0.55586,0.443437 -0.91211,0.585937 -0.3525,0.1425 -0.742422,0.212891 -1.169921,0.212891 -0.435001,0 -0.824922,-0.07023 -1.169922,-0.208985 -0.345,-0.13875 -0.6390629,-0.330625 -0.8828129,-0.578125 -0.24375,-0.25125 -0.43125,-0.55164 -0.5625,-0.90039 -0.1275,-0.3525 -0.1914062,-0.742422 -0.1914062,-1.169922 0,-0.3825 0.076719,-0.774531 0.2304687,-1.175781 0.1575,-0.4050044 0.3983594,-0.82477 0.7246094,-1.25977 l 1.941406,-2.6054688 c 0.0675,-0.09 0.165469,-0.1667187 0.292969,-0.2304687 0.13125,-0.06375 0.280469,-0.095703 0.449219,-0.095703 z m 6.470703,1.5820312 -2.525391,3.4863287 2.47461,0 0,-2.6601568 c 0,-0.25125 0.01703,-0.5261719 0.05078,-0.8261719 z m -7.308594,2.5136717 c -0.22125,0 -0.421562,0.03828 -0.601562,0.113282 -0.18,0.075 -0.333438,0.179453 -0.460938,0.314453 -0.1275,0.13125 -0.227578,0.288906 -0.298828,0.472656 -0.07125,0.18 -0.107422,0.373985 -0.107422,0.583985 0,0.224999 0.02984,0.43164 0.08984,0.61914 0.06375,0.18375 0.157344,0.341406 0.277344,0.472656 0.12375,0.13125 0.275078,0.233594 0.455078,0.308594 0.18,0.07125 0.38875,0.107422 0.625,0.107422 0.22125,0 0.423672,-0.03633 0.607422,-0.111328 0.1875,-0.075 0.345312,-0.181406 0.476562,-0.316406 0.135,-0.135 0.241406,-0.292657 0.316406,-0.472657 0.075,-0.18375 0.111329,-0.381953 0.111328,-0.595703 0,-0.2325 -0.03422,-0.44125 -0.105468,-0.625 -0.07125,-0.1875 -0.173438,-0.343203 -0.304688,-0.470703 -0.13125,-0.13125 -0.288906,-0.231328 -0.472656,-0.298828 -0.18375,-0.0675 -0.386172,-0.101563 -0.607422,-0.101563 z m -0.958984,8.3125 0.677734,0 0,2.21875 c 0.141602,-0.24414 0.320313,-0.423828 0.535156,-0.541015 0.217286,-0.119629 0.475098,-0.179688 0.775391,-0.179688 0.498047,0 0.902832,0.198243 1.212891,0.59375 0.3125,0.395508 0.46875,0.914063 0.46875,1.558594 0,0.644531 -0.15625,1.165039 -0.46875,1.560547 -0.310059,0.395508 -0.714844,0.59375 -1.212891,0.59375 -0.300293,0 -0.558105,-0.05859 -0.775391,-0.175781 -0.214843,-0.119629 -0.393554,-0.302735 -0.535156,-0.546875 l 0,0.615234 -0.677734,0 0,-5.697266 z m 4.787109,0 0.673828,0 0,0.853516 -0.673828,0 0,-0.853516 z m 2.068359,0.431641 0.677735,0 0,1.164063 1.386719,0 0,0.52539 -1.386719,0 0,2.226563 c 0,0.334472 0.04443,0.549316 0.134765,0.644531 0.09277,0.09521 0.279786,0.142578 0.560547,0.142578 l 0.691407,0 0,0.5625 -0.691407,0 c -0.520019,0 -0.878418,-0.09619 -1.076171,-0.289062 -0.197754,-0.195313 -0.296876,-0.547852 -0.296876,-1.060547 l 0,-2.226563 -0.49414,0 0,-0.52539 0.49414,0 0,-1.164063 z m -2.068359,1.164063 0.673828,0 0,4.101562 -0.673828,0 0,-4.101562 z m -2.962891,0.466796 c -0.356445,0 -0.638671,0.140626 -0.84375,0.423829 -0.202636,0.280761 -0.302734,0.668457 -0.302734,1.164062 0,0.495606 0.100098,0.884766 0.302734,1.167969 0.205079,0.280762 0.487305,0.421875 0.84375,0.421875 0.356446,0 0.635254,-0.141113 0.837891,-0.421875 0.205078,-0.283203 0.308594,-0.672363 0.308594,-1.167969 0,-0.495605 -0.103516,-0.883301 -0.308594,-1.164062 -0.202637,-0.283203 -0.481445,-0.423829 -0.837891,-0.423829 z"
     transform="matrix(0.70064624,0,0,0.70674382,1.4849469,1.5210848)"
     id="rect4144"
     inkscape:connector-curvature="0" />
  <path
     inkscape:connector-curvature="0"
     style="opacity:0.86;fill:#000000;fill-opacity:0.87113404;stroke:none;stroke-width:2.5;stroke-linecap:butt;stroke-linejoin:round;stroke-miterlimit:4;stroke-dasharray:none;stroke-opacity:0.46113987"
     d="m 8.0300669,3.2484282 c -2.7384877,0 -4.9428404,2.2235367 -4.9428404,4.9858567 l 0,7.5063921 c 0,2.762321 2.2043527,4.985858 4.9428404,4.985858 l 7.6619501,0 c 2.738488,0 4.942841,-2.223537 4.942841,-4.985858 l 0,-7.5063921 c 0,-2.76232 -2.204353,-4.9858567 -4.942841,-4.9858567 l -7.6619501,0 z m 6.4837151,2.2306601 0.922336,0 0,3.5847928 0.717066,0 0,0.5687076 c 0,0.053006 -0.01648,0.099662 -0.05064,0.1394165 -0.03415,0.037104 -0.08337,0.055218 -0.146424,0.055218 l -0.52001,0 0,1.4038248 -0.847071,0 0,-1.4038248 -2.404366,0 c -0.06568,0 -0.123873,-0.019598 -0.173794,-0.05936 -0.04992,-0.042405 -0.08129,-0.093643 -0.09442,-0.1546002 L 11.813827,9.1163349 14.513778,5.4790883 Z m -4.422829,0.00277 0.867597,0 -1.6914041,2.0871028 c -0.036783,0.045055 -0.071215,0.088619 -0.1053709,0.1283734 -0.031529,0.039754 -0.064263,0.080447 -0.095791,0.1228519 0.1103518,-0.055656 0.2296809,-0.099331 0.3557973,-0.1311341 0.1287436,-0.031804 0.2676139,-0.048312 0.417377,-0.048312 0.2154491,0 0.4244381,0.036111 0.6267511,0.107668 0.204939,0.071558 0.38415,0.1799988 0.539167,0.3257647 0.155019,0.1431157 0.28037,0.3222864 0.374956,0.5369599 0.09459,0.2146736 0.142319,0.4646843 0.14232,0.7509155 0,0.2676792 -0.04921,0.5191803 -0.146425,0.7550558 -0.09721,0.233226 -0.233129,0.437961 -0.409166,0.612881 -0.176038,0.174919 -0.389461,0.313397 -0.639067,0.414108 -0.246978,0.10071 -0.5201751,0.150457 -0.8197007,0.150457 -0.3047819,0 -0.5779785,-0.04963 -0.8197015,-0.147698 C 8.4465687,11.048787 8.2405345,10.91318 8.0697519,10.738261 7.8989694,10.560691 7.7675982,10.348393 7.6756384,10.101916 7.5863061,9.8527887 7.5415303,9.5772136 7.5415303,9.2750807 c 0,-0.2703295 0.053753,-0.547395 0.1614771,-0.8309761 C 7.8133592,8.1578702 7.9821164,7.8612035 8.2107023,7.5537699 L 9.5709413,5.712371 c 0.047294,-0.063607 0.1159352,-0.1178275 0.2052675,-0.1628824 0.09196,-0.045055 0.1965096,-0.067637 0.3147442,-0.067637 z m 4.533673,1.1180907 -1.769406,2.4639415 1.733827,0 0,-1.8800496 c 0,-0.1775693 0.01193,-0.3718688 0.03557,-0.5838919 z M 9.5038872,8.3764644 c -0.1550179,0 -0.2953657,0.027055 -0.4214821,0.080062 -0.1261163,0.053006 -0.233622,0.1268273 -0.3229545,0.2222379 -0.089332,0.09276 -0.1594516,0.2041825 -0.2093727,0.3340467 -0.049921,0.1272139 -0.075265,0.2643116 -0.075265,0.4127278 0,0.1590167 0.020907,0.3050589 0.062946,0.4375733 0.044666,0.1298643 0.1102425,0.2412864 0.19432,0.3340474 0.086705,0.09276 0.1927324,0.16509 0.3188487,0.218096 0.1261164,0.05035 0.2723763,0.07592 0.4379039,0.07592 0.155018,0 0.2968443,-0.02567 0.425588,-0.07868 0.1313714,-0.05301 0.2419414,-0.128208 0.3339014,-0.223618 0.09459,-0.09541 0.16914,-0.2068336 0.221689,-0.3340474 0.05255,-0.1298642 0.07799,-0.269943 0.07799,-0.4210094 0,-0.164318 -0.02398,-0.3118508 -0.07389,-0.4417149 C 10.424196,8.859595 10.352598,8.7495529 10.260638,8.6594431 10.168678,8.5666781 10.058216,8.4959486 9.9294724,8.4482435 9.8007287,8.4005382 9.6589025,8.3764647 9.5038844,8.3764647 Z m -0.6719085,5.8748076 0.4748518,0 0,1.568089 c 0.099213,-0.172545 0.2244261,-0.299539 0.3749551,-0.382359 0.1522405,-0.08454 0.3328754,-0.126995 0.5432754,-0.126995 0.348954,0 0.632566,0.140108 0.849806,0.419629 0.218953,0.279523 0.328429,0.646009 0.328429,1.101528 0,0.455517 -0.109476,0.823384 -0.328429,1.102906 -0.21724,0.279524 -0.500852,0.419629 -0.849806,0.419629 -0.2104,0 -0.3910349,-0.0414 -0.5432754,-0.124232 -0.150529,-0.08454 -0.2757421,-0.213956 -0.3749551,-0.3865 l 0,0.434813 -0.4748518,0 0,-4.026508 z m 3.3540703,0 0.472115,0 0,0.603218 -0.472115,0 0,-0.603218 z m 1.449188,0.305061 0.474853,0 0,0.822694 0.971599,0 0,0.371315 -0.971599,0 0,1.57361 c 0,0.236386 0.03113,0.388226 0.09442,0.455518 0.065,0.06729 0.196031,0.100767 0.392745,0.100767 l 0.484432,0 0,0.397543 -0.484432,0 c -0.364349,0 -0.61546,-0.06798 -0.754015,-0.204293 -0.138556,-0.138036 -0.208005,-0.387192 -0.208005,-0.749535 l 0,-1.57361 -0.346218,0 0,-0.371315 0.346218,0 0,-0.822694 z m -1.449188,0.822694 0.472115,0 0,2.898753 -0.472115,0 0,-2.898753 z m -2.075939,0.329905 c -0.2497416,0 -0.4474822,0.09939 -0.59117,0.299538 -0.1419762,0.198426 -0.2121095,0.472428 -0.2121095,0.822694 0,0.350265 0.070133,0.625302 0.2121095,0.825455 0.1436878,0.198425 0.3414284,0.298157 0.59117,0.298157 0.249743,0 0.445089,-0.09973 0.587066,-0.298157 0.143687,-0.200153 0.216215,-0.47519 0.216215,-0.825455 0,-0.350266 -0.07252,-0.624268 -0.216215,-0.822694 -0.141977,-0.200152 -0.337323,-0.299538 -0.587066,-0.299538 z"
     id="rect4144-7" />
</svg>
