<?xml version="1.0" encoding="UTF-8" standalone="no"?>
<!-- Created with Inkscape (http://www.inkscape.org/) -->

<svg
   xmlns:dc="http://purl.org/dc/elements/1.1/"
   xmlns:cc="http://creativecommons.org/ns#"
   xmlns:rdf="http://www.w3.org/1999/02/22-rdf-syntax-ns#"
   xmlns:svg="http://www.w3.org/2000/svg"
   xmlns="http://www.w3.org/2000/svg"
   xmlns:sodipodi="http://sodipodi.sourceforge.net/DTD/sodipodi-0.dtd"
   xmlns:inkscape="http://www.inkscape.org/namespaces/inkscape"
   width="2750"
   height="1833.75"
   viewBox="0 0 2750 1833.75"
   id="svg2"
   version="1.1"
   inkscape:version="0.91 r13725"
   sodipodi:docname="assets.svg"
   inkscape:export-filename="/home/abe/kedos-project/tempo/data/Wallpapers/cloudy_forest/assets.png"
   inkscape:export-xdpi="90"
   inkscape:export-ydpi="90">
  <defs
     id="defs4">
    <clipPath
       clipPathUnits="userSpaceOnUse"
       id="clipPath4480">
      <rect
         style="opacity:0.66300001;fill:#ff00ff;fill-opacity:1;stroke:none;stroke-width:2.5;stroke-linecap:butt;stroke-linejoin:round;stroke-miterlimit:4;stroke-dasharray:none;stroke-opacity:0.46113987"
         id="rect4482"
         width="2750"
         height="1833.75"
         x="0"
         y="-781.38788" />
    </clipPath>
    <filter
       inkscape:collect="always"
       style="color-interpolation-filters:sRGB"
       id="filter4564"
       x="-0.60503684"
       width="2.2100737"
       y="-1.7589462"
       height="4.5178924">
      <feGaussianBlur
         inkscape:collect="always"
         stdDeviation="182.23133"
         id="feGaussianBlur4566" />
    </filter>
    <filter
       inkscape:collect="always"
       style="color-interpolation-filters:sRGB"
       id="filter4568"
       x="-0.5035339"
       width="2.0070678"
       y="-1.4043514"
       height="3.8087028">
      <feGaussianBlur
         inkscape:collect="always"
         stdDeviation="182.23133"
         id="feGaussianBlur4570" />
    </filter>
    <filter
       inkscape:collect="always"
       style="color-interpolation-filters:sRGB"
       id="filter4572"
       x="-0.61793595"
       width="2.2358719"
       y="-1.3279336"
       height="3.6558672">
      <feGaussianBlur
         inkscape:collect="always"
         stdDeviation="182.23133"
         id="feGaussianBlur4574" />
    </filter>
    <filter
       inkscape:collect="always"
       style="color-interpolation-filters:sRGB"
       id="filter4576"
       x="-0.70904215"
       width="2.4180843"
       y="-1.2545715"
       height="3.5091431">
      <feGaussianBlur
         inkscape:collect="always"
         stdDeviation="182.23133"
         id="feGaussianBlur4578" />
    </filter>
    <filter
       inkscape:collect="always"
       style="color-interpolation-filters:sRGB"
       id="filter4178"
       x="-0.083168308"
       width="1.1663366"
       y="-0.17686821"
       height="1.3537364">
      <feGaussianBlur
         inkscape:collect="always"
         stdDeviation="96.100385"
         id="feGaussianBlur4180" />
    </filter>
  </defs>
  <sodipodi:namedview
     id="base"
     pagecolor="#ffffff"
     bordercolor="#666666"
     borderopacity="1.0"
     inkscape:pageopacity="0.0"
     inkscape:pageshadow="2"
     inkscape:zoom="0.35"
     inkscape:cx="1742.096"
     inkscape:cy="786.50626"
     inkscape:document-units="px"
     inkscape:current-layer="g4471"
     showgrid="false"
     units="px"
     inkscape:window-width="1920"
     inkscape:window-height="1019"
     inkscape:window-x="0"
     inkscape:window-y="27"
     inkscape:window-maximized="1" />
  <metadata
     id="metadata7">
    <rdf:RDF>
      <cc:Work
         rdf:about="">
        <dc:format>image/svg+xml</dc:format>
        <dc:type
           rdf:resource="http://purl.org/dc/dcmitype/StillImage" />
        <dc:title></dc:title>
      </cc:Work>
    </rdf:RDF>
  </metadata>
  <g
     inkscape:label="Layer 1"
     inkscape:groupmode="layer"
     id="layer1"
     transform="translate(0,781.38787)">
    <g
       id="g4471"
       clip-path="url(#clipPath4480)">
      <path
         inkscape:connector-curvature="0"
         id="path4159"
         d="m 2647.1429,-772.81645 -2771.75426,9.80006 24.61136,523.94995 51.428571,8.57143 97.142856,-91.42857 74.285723,-111.42857 68.57142,2.85714 2.85715,74.28571 105.71428,14.28572 42.85715,-88.57143 -25.99462,-496.14085 307.06588,3.80501 -66.78555,475.19298 62.85714,5.71429 74.28572,-85.71429 117.14285,-37.14286 c 0,0 2.85715,74.28572 2.85715,88.57143 0,14.28572 122.85714,20 122.85714,20 l 31.4286,-62.85714 229.82744,-563.23916 -66.9703,526.0963 L 759.74612,-44.413852 1135.536,221.72143 1340,-490.49501 l -375.42013,225.35853 363.99163,26.07004 120,-28.57143 34.2857,-94.28571 69.3242,-598.89214 212.1169,-85.17388 24.2732,546.92316 117.1428,-62.85714 165.7143,22.85714 c 0,0 -162.8571,168.57143 -162.8571,180 0,11.42857 94.2857,-188.57143 94.2857,-188.57143 l 60,128.57143 120,-82.85714 c 0,0 68.5714,14.28571 65.7143,25.71428 -2.8572,11.42857 -45.7143,168.57143 -45.7143,168.57143 l 51.4286,60 94.2857,-40 42.8571,-28.57143 22.8572,-88.57143 145.7142,-8.57142 54.2858,-142.85715 34.2857,-20 z"
         style="opacity:1;fill:#ffffff;fill-opacity:1;fill-rule:evenodd;stroke:none;stroke-width:1px;stroke-linecap:butt;stroke-linejoin:miter;stroke-opacity:1;filter:url(#filter4178)"
         sodipodi:nodetypes="ccccccccccccccccsccccccccccccccccscccsccccccccc"
         transform="matrix(0.74448273,0,0,0.65607705,436.9544,5.514031)" />
      <path
         inkscape:connector-curvature="0"
         id="path4161"
         d="m 1922.8571,146.64784 -217.1428,-8.57142 -14.2857,165.71431 c 0,0 62.8571,108.5714 74.2857,108.5714 11.4286,0 137.1428,-11.4286 148.5714,-11.4286 11.4286,0 182.8572,-8.5714 182.8572,-8.5714 l 148.5714,-94.2857 122.8571,-60 c 0,0 40,-102.85716 28.5715,-111.42859 -11.4286,-8.57142 -180,-57.14285 -191.4286,-40 C 2194.2857,103.7907 2080,195.21927 2080,195.21927 Z"
         style="opacity:0.66300001;fill:#ffffff;fill-opacity:1;fill-rule:evenodd;stroke:none;stroke-width:1px;stroke-linecap:butt;stroke-linejoin:miter;stroke-opacity:1;filter:url(#filter4572)"
         transform="matrix(0.87154182,0,0,1.0796243,204.16569,-19.721913)" />
      <path
         inkscape:connector-curvature="0"
         id="path4163"
         d="M 940,266.64783 825.71429,232.36213 740,278.07643 c 0,0 -5.71429,80 0,97.1428 5.71429,17.1429 117.14286,131.4286 117.14286,131.4286 l 197.14284,-31.4286 c 0,0 194.2857,102.8572 205.7143,105.7143 11.4286,2.8572 94.2857,-157.1428 94.2857,-157.1428 0,0 -22.8571,-140 -45.7143,-142.8572 -22.8571,-2.8571 -154.2857,42.8572 -177.1428,37.1429 C 1108.5714,312.36213 940,266.64783 940,266.64783 Z"
         style="fill:#ffffff;fill-rule:evenodd;stroke:#000000;stroke-width:1px;stroke-linecap:butt;stroke-linejoin:miter;stroke-opacity:1;fill-opacity:1;opacity:0.663;filter:url(#filter4576)" />
      <path
         inkscape:connector-curvature="0"
         id="path4165"
         d="m 2205.7143,640.93353 -174.2857,68.5715 -28.5715,88.5714 -180,-8.5714 -34.2857,97.1428 c 0,0 288.5715,65.7143 311.4286,65.7143 22.8571,0 217.1429,-51.4286 217.1429,-51.4286 0,0 177.1428,31.4286 200,34.2857 22.8571,2.8572 140,-74.2857 140,-74.2857 0,0 -17.1429,-142.8571 -54.2858,-145.7143 -37.1428,-2.8571 -191.4285,51.4286 -191.4285,51.4286 z"
         style="opacity:0.66300001;fill:#ffffff;fill-opacity:1;fill-rule:evenodd;stroke:#000000;stroke-width:1px;stroke-linecap:butt;stroke-linejoin:miter;stroke-opacity:1;filter:url(#filter4568)"
         transform="matrix(0.8033877,0,0,0.67183346,235.61249,94.290306)" />
      <path
         inkscape:connector-curvature="0"
         id="path4167"
         d="m 862.85714,755.21923 c 0,0 -240,-37.1428 -251.42857,-37.1428 -11.42857,0 -282.85714,14.2857 -282.85714,14.2857 l -37.14286,165.7143 c 0,0 65.71429,74.2857 102.85714,48.5714 37.14286,-25.7143 197.14286,-74.2857 214.28572,-71.4286 17.14286,2.8572 222.85714,88.5715 242.85714,91.4286 20,2.8572 154.28573,-77.1428 154.28573,-77.1428 l 8.5714,-111.4286 -125.71427,17.1428 z"
         style="opacity:0.66300001;fill:#ffffff;fill-opacity:1;fill-rule:evenodd;stroke:#000000;stroke-width:1px;stroke-linecap:butt;stroke-linejoin:miter;stroke-opacity:1;filter:url(#filter4564)"
         transform="matrix(0.96614614,0,0,0.65082889,146.38745,132.713)" />
    </g>
  </g>
</svg>
